<svg xmlns="http://www.w3.org/2000/svg" width="877.399" height="472.651"><defs><style>.cls-3{fill:#16acaa}.cls-4{fill:none;stroke:#3f3d56;stroke-miterlimit:10}.cls-5{opacity:.1}.cls-6{fill:#57b894}.cls-7{fill:#2f2e41}.cls-8{fill:#fff}.cls-9{fill:#6c63ff;opacity:.3}</style></defs><g id="Group_135" data-name="Group 135" transform="translate(.042 -5.349)"><ellipse id="Ellipse_68" data-name="Ellipse 68" cx="430.698" cy="28.513" rx="430.698" ry="28.513" transform="translate(10.731 420.974)" fill="#f2f2f2"/><path id="Path_151" data-name="Path 151" d="M556.385 324.894c-70.172 0-120.556 45.021-120.556 150.069 0 119.055 50.383 150.57 120.556 150.57s123.557-34.516 123.557-150.57c0-124.056-53.385-150.069-123.557-150.069zm.461 261.12c-48.6 0-74-28.514-74-110.974 0-72.759 26.432-111.128 75.035-111.128s75.035 25.2 75.035 111.128c0 80.382-27.472 110.975-76.074 110.975z" transform="translate(-131.462 -187.551)" fill="#ed3239"/><path id="Path_152" data-name="Path 152" class="cls-3" d="M335.458 545.149h-29.013v-85.436a17.11 17.11 0 00-17.11-17.11h-6.8a17.11 17.11 0 00-17.11 17.11v85.437H183.59a9.768 9.768 0 01-8.637-14.331l86.615-163.935a17.11 17.11 0 00-7.822-23.465L248.633 341a17.11 17.11 0 00-22.4 7.406L120.6 546.026a23.2 23.2 0 00-2.74 10.938 23.2 23.2 0 0023.2 23.2h124.366v54.026a20.509 20.509 0 0020.51 20.51 20.509 20.509 0 0020.509-20.509v-54.026h29.013a17.508 17.508 0 0017.508-17.508 17.508 17.508 0 00-17.508-17.508z" transform="translate(-73.111 -190.206)"/><path id="Path_153" data-name="Path 153" class="cls-3" d="M993.454 545.149H964.44v-85.436a17.11 17.11 0 00-17.109-17.11h-6.8a17.11 17.11 0 00-17.11 17.11v85.437h-81.835a9.768 9.768 0 01-8.637-14.331l86.615-163.935a17.11 17.11 0 00-7.822-23.465L906.629 341a17.11 17.11 0 00-22.4 7.406L778.6 546.026a23.2 23.2 0 00-2.74 10.938 23.2 23.2 0 0023.2 23.2h124.362v54.026a20.509 20.509 0 0020.51 20.51 20.509 20.509 0 0020.509-20.509v-54.026h29.013a17.508 17.508 0 0017.508-17.508 17.508 17.508 0 00-17.509-17.508z" transform="translate(-193.86 -190.206)"/><path id="Path_154" data-name="Path 154" class="cls-4" d="M345.261 532.9h-29.013v-85.44a17.11 17.11 0 00-17.11-17.11h-6.8a17.11 17.11 0 00-17.11 17.11v85.44h-81.836a9.768 9.768 0 01-8.637-14.331l86.615-163.935a17.11 17.11 0 00-7.822-23.465l-5.113-2.415a17.11 17.11 0 00-22.4 7.406L130.4 533.773a23.2 23.2 0 00-2.74 10.938 23.2 23.2 0 0023.2 23.2h124.368v54.025a20.509 20.509 0 0020.509 20.509 20.509 20.509 0 0020.509-20.51v-54.023h29.013a17.508 17.508 0 0017.51-17.512 17.508 17.508 0 00-17.508-17.5z" transform="translate(-74.91 -187.957)"/><path id="Path_155" data-name="Path 155" class="cls-4" d="M1011.833 532.9H982.82v-85.44a17.11 17.11 0 00-17.11-17.11h-6.8a17.11 17.11 0 00-17.11 17.11v85.44h-81.834a9.768 9.768 0 01-8.636-14.331l86.615-163.935a17.11 17.11 0 00-7.822-23.465l-5.113-2.415a17.11 17.11 0 00-22.4 7.406L796.974 533.773a23.2 23.2 0 00-2.74 10.938 23.2 23.2 0 0023.2 23.2H941.8v54.025a20.509 20.509 0 0020.509 20.509 20.509 20.509 0 0020.509-20.51v-54.023h29.013a17.508 17.508 0 0017.508-17.508 17.508 17.508 0 00-17.509-17.508z" transform="translate(-197.233 -187.957)"/><path id="Path_156" data-name="Path 156" class="cls-4" d="M575.99 313.866c-70.172 0-120.556 45.021-120.556 150.069 0 119.055 50.383 150.57 120.556 150.57s123.557-34.516 123.557-150.57c0-124.056-53.385-150.069-123.557-150.069zm.461 261.12c-48.6 0-74-28.514-74-110.974 0-72.759 26.432-111.128 75.035-111.128s75.035 25.2 75.035 111.128c0 80.382-27.471 110.975-76.074 110.975z" transform="translate(-135.06 -185.527)"/><path id="Path_168" data-name="Path 168" class="cls-5" d="M595.467 163.234c-.129 0-.257.005-.385.01a10.531 10.531 0 010 21.048c.128 0 .256.01.385.01a10.534 10.534 0 100-21.067z" transform="translate(-160.686 -157.885)"/><path id="Path_169" data-name="Path 169" class="cls-5" d="M531.828 163.234c.129 0 .257.005.385.01a10.531 10.531 0 000 21.048c-.128 0-.256.01-.385.01a10.534 10.534 0 110-21.067z" transform="translate(-147.146 -157.885)"/><path id="Path_172" data-name="Path 172" class="cls-6" d="M1067.4 570.025a16.993 16.993 0 102.263-32.59l.425 8.746-4.138-7.5a16.929 16.929 0 00-8.723 9.571 16.663 16.663 0 00-.978 4.6 16.99 16.99 0 0011.15 17.172z" transform="translate(-245.308 -226.485)"/><path id="Path_173" data-name="Path 173" class="cls-4" d="M1094.281 668.186c-1.461-7.438 4.869-14.033 11.121-18.319s13.558-8.5 15.691-15.772c3.066-10.454-6.067-20.028-13.175-28.285a102.306 102.306 0 01-13.491-20.051 27.6 27.6 0 01-3.227-9.117c-.561-4.634.928-9.245 2.428-13.665q7.495-22.087 16.026-43.8" transform="translate(-251.707 -223.203)"/><path id="Path_174" data-name="Path 174" class="cls-4" d="M1068.254 567.267a16.993 16.993 0 102.263-32.59l.425 8.746-4.138-7.5a16.93 16.93 0 00-8.723 9.571 16.663 16.663 0 00-.978 4.6 16.99 16.99 0 0011.151 17.173z" transform="translate(-245.464 -225.979)"/><path id="Path_175" data-name="Path 175" class="cls-6" d="M1092.221 512.957a16.973 16.973 0 0112.231-10.776l1.4 8.315 2.594-8.733a16.991 16.991 0 11-16.224 11.194z" transform="translate(-251.729 -220.008)"/><path id="Path_176" data-name="Path 176" class="cls-4" d="M1093.361 509.279a16.973 16.973 0 0112.231-10.776l1.4 8.315 2.594-8.733a16.991 16.991 0 11-16.224 11.194z" transform="translate(-251.939 -219.333)"/><path id="Path_177" data-name="Path 177" class="cls-6" d="M1105.522 618.079a16.991 16.991 0 0015.039-30.229l-1.993 6.711-1.413-8.413a.29.29 0 00-.043-.016 16.992 16.992 0 10-11.589 31.947z" transform="translate(-252.302 -235.303)"/><path id="Path_178" data-name="Path 178" class="cls-4" d="M1106.522 614.354a16.991 16.991 0 0015.039-30.229l-1.993 6.711-1.413-8.413a.3.3 0 00-.043-.016 16.992 16.992 0 10-11.589 31.947z" transform="translate(-252.485 -234.619)"/><path id="Path_179" data-name="Path 179" class="cls-6" d="M1086.321 655.573a16.984 16.984 0 103.275-13.307l7.571 11.4-10.345-6.048a16.834 16.834 0 00-.501 7.955z" transform="translate(-250.786 -244.577)"/><path id="Path_180" data-name="Path 180" class="cls-4" d="M1087.171 652.816a16.984 16.984 0 103.275-13.307l7.571 11.4-10.345-6.048a16.833 16.833 0 00-.501 7.955z" transform="translate(-250.942 -244.071)"/><path id="Path_181" data-name="Path 181" class="cls-6" d="M70.409 623.265a11.165 11.165 0 101.491-21.412l.279 5.746-2.719-4.925a11.122 11.122 0 00-5.731 6.289 10.948 10.948 0 00-.642 3.02 11.163 11.163 0 007.326 11.282z" transform="translate(-63.054 -238.33)"/><path id="Path_182" data-name="Path 182" class="cls-4" d="M88.065 687.759c-.96-4.887 3.2-9.22 7.307-12.036s8.908-5.583 10.309-10.362c2.014-6.869-3.986-13.159-8.656-18.584a67.215 67.215 0 01-8.864-13.177 18.135 18.135 0 01-2.12-5.99c-.368-3.045.61-6.074 1.6-8.978q4.924-14.512 10.53-28.781" transform="translate(-67.258 -236.174)"/><path id="Path_183" data-name="Path 183" class="cls-4" d="M70.972 621.453a11.165 11.165 0 101.487-21.412l.279 5.747-2.719-4.924a11.123 11.123 0 00-5.731 6.289 10.949 10.949 0 00-.642 3.02 11.163 11.163 0 007.326 11.281z" transform="translate(-63.157 -237.998)"/><path id="Path_184" data-name="Path 184" class="cls-6" d="M86.716 585.77a11.152 11.152 0 018.036-7.08l.919 5.463 1.7-5.738a11.163 11.163 0 11-10.66 7.354z" transform="translate(-67.273 -234.075)"/><path id="Path_185" data-name="Path 185" class="cls-4" d="M87.467 583.354a11.152 11.152 0 018.036-7.08l.919 5.463 1.7-5.737a11.164 11.164 0 11-10.66 7.354z" transform="translate(-67.411 -233.631)"/><path id="Path_186" data-name="Path 186" class="cls-6" d="M95.457 654.837a11.164 11.164 0 009.881-19.861l-1.31 4.409-.929-5.527-.028-.011a11.164 11.164 0 10-7.614 20.99z" transform="translate(-67.65 -244.124)"/><path id="Path_187" data-name="Path 187" class="cls-4" d="M96.108 652.39a11.164 11.164 0 009.881-19.861l-1.31 4.409-.929-5.527-.028-.011a11.164 11.164 0 10-7.614 20.99z" transform="translate(-67.769 -243.674)"/><path id="Path_188" data-name="Path 188" class="cls-6" d="M82.837 679.472a11.159 11.159 0 102.151-8.743l4.974 7.487-6.8-3.974a11.059 11.059 0 00-.329 5.23z" transform="translate(-66.653 -250.217)"/><path id="Path_189" data-name="Path 189" class="cls-4" d="M83.4 677.66a11.159 11.159 0 102.151-8.743l4.974 7.487-6.8-3.974a11.06 11.06 0 00-.325 5.23z" transform="translate(-66.756 -249.885)"/><ellipse id="Ellipse_73" data-name="Ellipse 73" class="cls-7" cx="13.88" cy="17.963" rx="13.88" ry="17.963" transform="translate(378.807 243.574)"/><ellipse id="Ellipse_74" data-name="Ellipse 74" class="cls-7" cx="13.88" cy="17.963" rx="13.88" ry="17.963" transform="translate(454.333 243.982)"/><path id="Path_190" data-name="Path 190" class="cls-7" d="M612.122 539.2c0 8.116-11.333 14.7-25.311 14.7s-25.311-6.587-25.311-14.7c0-7.03 8.5-12.909 19.857-14.346a40.92 40.92 0 015.454-.351 41.4 41.4 0 019.088.98c9.487 2.111 16.223 7.46 16.223 13.717z" transform="translate(-154.524 -224.18)"/><ellipse id="Ellipse_75" data-name="Ellipse 75" class="cls-4" cx="13.88" cy="17.963" rx="13.88" ry="17.963" transform="translate(382.073 239.491)"/><ellipse id="Ellipse_76" data-name="Ellipse 76" class="cls-4" cx="13.88" cy="17.963" rx="13.88" ry="17.963" transform="translate(457.599 239.9)"/><ellipse id="Ellipse_77" data-name="Ellipse 77" class="cls-4" cx="25.311" cy="14.697" rx="25.311" ry="14.697" transform="translate(410.242 296.237)"/><path id="Path_191" data-name="Path 191" class="cls-8" d="M600.513 526.613a4.031 4.031 0 01-1.078 2.77 3.543 3.543 0 01-2.6 1.15h-8.165a3.808 3.808 0 01-3.67-3.92 4 4 0 01.67-2.238 38.41 38.41 0 015.454-.375 38.923 38.923 0 019.088 1.045 4.136 4.136 0 01.301 1.568z" transform="translate(-158.836 -224.089)"/><circle id="Ellipse_78" data-name="Ellipse 78" class="cls-8" cx="4.082" cy="4.082" r="4.082" transform="translate(391.871 248.473)"/><circle id="Ellipse_79" data-name="Ellipse 79" class="cls-8" cx="4.082" cy="4.082" r="4.082" transform="translate(467.805 248.473)"/><circle id="Ellipse_80" data-name="Ellipse 80" class="cls-9" cx="4.082" cy="4.082" r="4.082" transform="translate(471.887 286.848)"/><circle id="Ellipse_81" data-name="Ellipse 81" class="cls-9" cx="4.082" cy="4.082" r="4.082" transform="translate(372.275 286.848)"/></g></svg>