<svg xmlns="http://www.w3.org/2000/svg" width="139.973" height="131.875"><g data-name="Group 15" fill="none" stroke="#ed3239" stroke-linecap="round"><path data-name="Icon ionic-ios-settings" d="M85.354 48.917a11.226 11.226 0 017.2-10.473 44.492 44.492 0 00-5.386-12.973 11.382 11.382 0 01-4.568.977 11.2 11.2 0 01-10.245-15.767 44.381 44.381 0 00-12.953-5.384 11.22 11.22 0 01-20.952 0 44.516 44.516 0 00-12.976 5.384 11.2 11.2 0 01-10.249 15.767 11.012 11.012 0 01-4.568-.977 45.475 45.475 0 00-5.363 13 11.213 11.213 0 017.2 10.473 11.239 11.239 0 01-7.177 10.47 44.492 44.492 0 005.386 12.972 11.207 11.207 0 0114.791 14.79A44.776 44.776 0 0038.47 92.56a11.2 11.2 0 0120.907 0 44.516 44.516 0 0012.976-5.384 11.219 11.219 0 0114.794-14.79 44.752 44.752 0 005.386-12.973 11.28 11.28 0 01-7.179-10.496zM49.13 67.07a18.175 18.175 0 1118.18-18.173A18.173 18.173 0 0149.13 67.07z" stroke-width="9"/><path data-name="Icon ionic-ios-settings" d="M131.411 100.813a6.93 6.93 0 014.447-6.465 27.465 27.465 0 00-3.325-8.008 7.026 7.026 0 01-2.82.6 6.915 6.915 0 01-6.322-9.729 27.4 27.4 0 00-8-3.324 6.926 6.926 0 01-12.934 0 27.48 27.48 0 00-8.01 3.324 6.915 6.915 0 01-6.327 9.733 6.8 6.8 0 01-2.82-.6 28.072 28.072 0 00-3.309 8.018 6.927 6.927 0 01.014 12.93 27.464 27.464 0 003.325 8.008 6.918 6.918 0 019.132 9.13 27.64 27.64 0 008.01 3.324 6.914 6.914 0 0112.906 0 27.48 27.48 0 008.01-3.324 6.926 6.926 0 019.132-9.13 27.625 27.625 0 003.325-8.008 6.963 6.963 0 01-4.434-6.479zm-22.36 11.206a11.219 11.219 0 1111.222-11.22 11.218 11.218 0 01-11.222 11.22z" stroke-width="7"/></g></svg>